<?xml version="1.0" standalone="no"?>
<!DOCTYPE svg PUBLIC "-//W3C//DTD SVG 20010904//EN"
 "http://www.w3.org/TR/2001/REC-SVG-20010904/DTD/svg10.dtd">
<svg version="1.0" xmlns="http://www.w3.org/2000/svg"
 width="1123.000000pt" height="1123.000000pt" viewBox="0 0 1123.000000 1123.000000"
 preserveAspectRatio="xMidYMid meet">
<metadata>
Created by potrace 1.14, written by Peter Selinger 2001-2017
</metadata>
<g transform="translate(0.000000,1123.000000) scale(0.100000,-0.100000)"
fill="#000000" stroke="none">
<path d="M342 9403 c-27 -16 -41 -31 -38 -39 3 -8 2 -14 -2 -14 -4 0 -8 -179
-10 -398 -2 -218 -4 -449 -5 -512 l-2 -115 -52 0 c-46 0 -53 -3 -73 -32 -30
-44 -36 -80 -36 -210 1 -62 -1 -113 -4 -113 -3 0 -6 -98 -6 -218 -1 -119 -5
-374 -9 -567 -12 -557 -12 -610 7 -629 23 -22 67 -39 108 -40 28 -1 35 -5 36
-22 1 -12 4 -26 8 -33 4 -6 4 -11 -1 -11 -4 0 -9 -161 -11 -358 -2 -196 -4
-419 -6 -496 l-2 -138 39 -39 40 -39 191 -1 c105 0 421 -2 701 -5 893 -8 1938
-16 2322 -17 205 -1 373 -6 373 -10 0 -4 8 -4 18 1 9 4 28 7 42 6 23 -3 85 -4
120 -3 8 0 308 -2 665 -5 358 -4 911 -8 1230 -11 319 -3 902 -7 1295 -11 393
-3 893 -7 1110 -8 217 -2 400 -5 405 -6 6 -1 15 -1 20 0 12 2 66 2 975 -6 399
-3 736 -7 750 -8 19 -1 32 9 55 44 l30 45 -1 577 -1 577 291 -1 c160 0 297 0
304 1 8 1 12 20 12 61 l0 60 -304 0 -305 0 2 193 2 192 300 0 300 0 3 64 3 63
-38 -2 c-21 -1 -158 -2 -304 -1 l-267 1 0 195 0 195 57 0 c31 0 167 0 304 0
l247 -1 0 61 0 60 -47 1 c-27 0 -163 1 -303 2 l-255 2 -2 191 -2 190 305 -1
304 -1 0 61 0 61 -261 0 c-143 -1 -266 2 -272 6 -6 3 -20 3 -32 -2 -41 -16
-48 -2 -44 95 3 72 3 164 1 579 l-3 410 -41 40 -40 40 -297 3 c-163 1 -592 4
-953 5 -362 2 -658 7 -658 11 0 4 -8 4 -17 0 -10 -5 -31 -8 -48 -7 -16 1 -410
5 -875 9 -465 3 -1108 8 -1430 11 -322 3 -591 5 -597 5 -46 -2 -108 -1 -171 1
-41 2 -76 0 -79 -5 -2 -4 -9 -4 -15 0 -7 3 -228 8 -492 9 -265 1 -839 6 -1276
9 -437 4 -806 6 -820 5 -14 -1 -29 -2 -35 -1 -20 0 -1313 11 -1845 15 l-545 4
-43 -25z"/>
<path d="M4882 5189 c-30 -11 -38 -38 -37 -114 l1 -62 -41 12 c-66 19 -123 5
-176 -45 -81 -75 -65 -237 29 -299 36 -24 67 -28 162 -22 14 1 46 -2 73 -5 27
-3 53 -2 60 4 17 14 16 477 -1 508 -14 26 -40 34 -70 23z m-52 -248 c13 -12
16 -35 15 -104 -1 -74 -4 -89 -21 -102 -40 -30 -107 -14 -125 31 -14 39 -13
128 2 160 22 44 91 52 129 15z"/>
<path d="M5323 5189 c-27 -10 -36 -39 -34 -112 l1 -60 -32 8 c-54 12 -106 8
-133 -9 -14 -9 -25 -14 -25 -11 0 3 -12 -7 -26 -22 -62 -65 -73 -163 -29 -239
44 -75 117 -106 198 -86 27 7 45 8 51 2 12 -12 86 -13 102 -2 8 5 11 81 10
253 -1 220 -3 249 -19 266 -19 21 -32 24 -64 12z m-51 -246 c13 -12 17 -33 17
-98 0 -99 -15 -125 -72 -125 -53 0 -83 41 -86 116 -1 32 3 71 10 86 19 45 89
57 131 21z"/>
<path d="M6180 5190 c-35 -8 -47 -39 -45 -113 l1 -64 -42 13 c-60 18 -126 2
-170 -43 -42 -42 -55 -72 -59 -134 -6 -124 122 -231 228 -191 20 7 36 8 48 2
31 -17 97 -12 107 8 6 13 9 434 3 488 -2 20 -45 41 -71 34z m-61 -245 c16 -15
23 -158 10 -194 -9 -22 -64 -37 -98 -26 -43 13 -67 115 -46 188 16 51 96 70
134 32z"/>
<path d="M3742 5174 c-15 -10 -22 -25 -22 -47 1 -18 0 -39 0 -47 -1 -8 0 -97
1 -198 1 -100 -1 -185 -4 -188 -3 -4 -2 -15 3 -24 7 -14 22 -18 57 -18 27 0
53 4 59 9 7 6 22 6 39 -1 35 -13 109 -7 138 13 68 46 97 96 97 171 0 127 -120
220 -233 181 -33 -11 -35 -11 -40 11 -2 13 -1 24 2 24 6 0 5 47 -2 84 -4 22
-34 46 -57 46 -8 0 -26 -7 -38 -16z m232 -235 c15 -14 20 -34 22 -81 2 -115
-41 -162 -122 -135 -21 7 -39 41 -34 62 2 6 2 40 2 76 -1 51 2 70 16 82 35 30
82 29 116 -4z"/>
<path d="M474 5169 c-46 -16 -48 -28 -47 -265 0 -156 4 -228 12 -238 6 -7 25
-16 42 -18 48 -7 69 28 69 116 l0 72 43 0 c49 -1 48 -1 77 -85 11 -35 31 -72
43 -82 26 -22 80 -25 96 -5 26 31 16 70 -46 164 l-22 34 27 40 c34 52 39 135
11 183 -35 59 -74 78 -164 82 -44 2 -89 5 -101 7 -11 1 -30 -1 -40 -5z m169
-64 c38 -16 54 -114 29 -167 -14 -30 -60 -48 -99 -40 -22 4 -23 8 -23 112 l0
108 38 -2 c20 -2 45 -6 55 -11z"/>
<path d="M882 5155 c-31 -39 -14 -90 33 -95 48 -5 75 16 75 59 0 58 -72 82
-108 36z"/>
<path d="M1386 5164 c-9 -8 -16 -18 -17 -22 0 -4 -2 -15 -4 -24 -5 -27 30 -59
65 -60 35 -1 59 24 60 63 0 50 -69 79 -104 43z"/>
<path d="M2706 5167 c-38 -13 -45 -53 -43 -275 2 -257 -9 -242 182 -242 115 0
134 2 148 18 10 10 17 26 17 34 0 33 -30 43 -128 43 l-95 0 1 43 c1 96 -1 89
37 88 19 0 35 -4 35 -8 0 -4 10 -4 23 0 12 5 34 7 50 6 36 -4 64 34 47 65 -12
23 -23 25 -121 22 l-67 -2 -3 44 c-7 78 -9 77 91 73 86 -3 90 -2 106 22 13 19
14 30 5 48 -6 13 -14 25 -18 25 -34 6 -247 3 -267 -4z"/>
<path d="M7179 5156 c-25 -26 -17 -65 26 -137 19 -31 35 -62 35 -68 0 -6 4
-11 9 -11 24 0 13 -42 -32 -114 -26 -44 -51 -91 -53 -106 -8 -38 24 -73 66
-72 41 1 46 5 84 90 18 40 37 68 42 64 6 -4 23 -38 40 -75 22 -52 35 -69 54
-74 50 -14 86 2 92 40 4 21 -34 103 -72 157 -35 49 -33 62 20 155 59 102 63
141 17 163 -50 24 -78 5 -114 -79 -29 -66 -53 -98 -53 -71 0 18 -60 141 -73
149 -23 15 -69 10 -88 -11z"/>
<path d="M6590 5160 c-53 -21 -59 -48 -59 -265 0 -222 5 -245 58 -245 56 0 62
20 58 195 -3 99 -1 151 5 141 5 -9 11 -24 13 -34 2 -9 8 -30 15 -47 6 -16 11
-32 11 -35 0 -3 4 -23 10 -45 38 -142 59 -174 116 -175 59 0 82 33 117 170 2
8 12 41 21 74 16 55 22 81 24 99 1 4 5 7 9 7 5 0 7 -15 6 -32 -9 -107 -5 -290
6 -303 16 -19 60 -19 86 -1 19 13 20 25 19 223 0 229 -6 252 -61 273 -79 30
-135 -18 -159 -135 -2 -5 -13 -44 -25 -85 -13 -41 -24 -82 -24 -90 -4 -40 -19
-42 -31 -4 -24 75 -47 154 -50 171 -2 10 -4 19 -5 21 -2 1 -3 5 -4 10 -1 4 -5
21 -10 38 -14 62 -85 97 -146 74z"/>
<path d="M3218 5025 c-41 -21 -46 -21 -55 -6 -8 13 -21 16 -52 13 -23 -2 -44
-8 -47 -13 -2 -5 -5 -81 -6 -169 -2 -179 5 -200 61 -200 48 0 55 20 57 151 1
108 3 121 22 142 16 17 30 22 52 19 47 -7 55 -25 57 -131 1 -53 2 -108 2 -123
1 -35 25 -58 60 -58 49 0 59 23 60 140 0 58 3 117 6 132 7 30 48 50 80 38 20
-8 53 -39 48 -47 -2 -1 -3 -54 -3 -117 0 -124 8 -146 55 -146 48 0 56 22 54
151 -1 66 -5 122 -10 125 -5 3 -9 13 -9 22 0 38 -79 99 -125 96 -11 -1 -28 -2
-37 -3 -9 -1 -23 -7 -30 -13 -58 -54 -54 -53 -90 -19 -18 17 -42 31 -53 32
-11 0 -27 2 -36 4 -9 1 -36 -7 -61 -20z"/>
<path d="M1108 5014 c-61 -39 -71 -114 -22 -165 13 -14 46 -33 74 -43 40 -14
50 -22 50 -41 0 -29 -12 -33 -78 -28 -57 4 -82 -7 -82 -37 0 -31 29 -44 103
-46 107 -3 158 27 172 103 8 51 -19 89 -90 124 -35 17 -66 37 -69 44 -9 23 21
37 67 32 51 -6 61 -1 65 35 3 23 -2 30 -24 38 -45 17 -125 10 -166 -16z"/>
<path d="M1568 5018 c-16 -16 -18 -36 -18 -182 0 -176 2 -182 54 -192 17 -3
32 2 46 16 18 18 20 32 19 122 -1 103 -1 103 30 130 36 32 66 35 99 10 22 -17
24 -27 27 -133 1 -63 3 -117 4 -122 2 -13 51 -27 76 -21 14 3 26 16 31 32 7
28 7 210 0 249 -19 92 -137 136 -229 84 -32 -18 -34 -18 -45 -1 -16 26 -71 31
-94 8z"/>
<path d="M2105 5019 c-53 -26 -93 -73 -102 -119 -21 -104 14 -188 98 -231 40
-20 120 -19 145 2 12 9 14 7 14 -17 0 -50 -13 -59 -87 -61 -37 -1 -75 -2 -84
-2 -26 -1 -40 -45 -23 -70 14 -19 23 -20 113 -18 85 2 102 5 134 27 61 41 70
79 72 280 2 170 -4 215 -28 218 -56 5 -82 3 -85 -6 -2 -8 -11 -8 -30 0 -44 18
-96 17 -137 -3z m128 -70 c32 -17 34 -23 32 -102 -4 -107 -3 -105 -27 -118
-69 -37 -125 9 -129 107 -4 98 53 150 124 113z"/>
<path d="M4283 5021 c-79 -31 -120 -94 -121 -183 0 -48 5 -65 28 -97 49 -67
85 -86 165 -86 97 0 150 27 150 76 0 27 -4 35 -22 37 -12 2 -36 -4 -53 -13
-52 -27 -101 -26 -132 3 -47 44 -38 48 93 47 95 0 123 3 133 15 7 8 12 20 11
25 -15 139 -134 222 -252 176z m111 -71 c14 -5 32 -23 40 -39 l16 -30 -90 0
c-93 0 -104 5 -77 40 28 36 67 46 111 29z"/>
<path d="M5590 5028 c-139 -38 -187 -222 -83 -319 48 -46 86 -59 150 -55 71 5
113 20 134 48 35 45 -16 87 -66 54 -14 -9 -25 -14 -25 -10 0 4 -6 2 -12 -3
-23 -18 -133 6 -114 24 3 3 1 13 -4 23 -9 16 0 17 111 16 128 -2 150 6 143 49
-10 64 -16 85 -24 85 -6 0 -10 5 -10 10 0 17 -51 58 -85 69 -49 16 -78 19
-115 9z m111 -88 c9 -8 21 -25 28 -37 11 -21 10 -21 -79 -22 -81 -1 -91 1 -88
17 9 50 101 79 139 42z"/>
<path d="M895 5004 c-18 -13 -20 -27 -21 -160 -1 -129 1 -148 18 -170 24 -30
61 -31 87 -3 17 18 20 35 19 108 0 47 1 91 2 96 1 6 1 12 0 15 -1 3 -3 27 -4
54 -3 69 -51 98 -101 60z"/>
<path d="M1395 5004 c-18 -13 -20 -28 -22 -152 -1 -76 3 -149 9 -164 19 -49
87 -50 106 -1 6 16 10 88 9 165 -2 124 -4 139 -22 152 -25 19 -55 19 -80 0z"/>
</g>
</svg>
